<svg xmlns="http://www.w3.org/2000/svg" data-name="Layer 1" viewBox="0 0 64 64" x="0px" y="0px"><title>furniture household trash bin</title><path d="M52,8H36V6a4,4,0,0,0-8,0V8H12a4,4,0,0,0,0,8V58a4,4,0,0,0,4,4H48a4,4,0,0,0,4-4V16a4,4,0,0,0,0-8ZM30,6a2,2,0,0,1,4,0V8H30ZM50,58a2,2,0,0,1-2,2H16a2,2,0,0,1-2-2V16H50Zm2-44H12a2,2,0,0,1,0-4H52a2,2,0,0,1,0,4Z"/><path d="M32,54a1,1,0,0,0,1-1V23a1,1,0,0,0-2,0V53A1,1,0,0,0,32,54Z"/><path d="M42,49a1,1,0,0,0,1-1V28a1,1,0,0,0-2,0V48A1,1,0,0,0,42,49Z"/><path d="M22,49a1,1,0,0,0,1-1V28a1,1,0,0,0-2,0V48A1,1,0,0,0,22,49Z"/></svg>